<svg xmlns="http://www.w3.org/2000/svg" viewBox="0 0 512 512"><defs><style>.cls-1{fill:#fff;}</style></defs><g id="Слой_2" data-name="Слой 2"><g id="uuid-3979faa6-f308-41bf-93e2-ac9bea892520"><rect class="cls-1" width="512" height="512"/><g id="uuid-d43189c2-f10f-4051-8eea-eb278edd9b47"><polygon points="58.36 197.29 58.36 314.71 197.59 314.71 197.59 289.14 175 289.14 175 197.29 144.14 197.29 144.14 289.44 88.81 289.44 88.81 197.29 58.36 197.29"/><polygon points="197.59 197.29 197.59 266.15 283.67 266.15 283.67 289.04 220.08 289.04 220.08 314.71 314.41 314.71 314.41 197.29 283.67 197.29 283.67 240.68 228.34 240.68 228.34 197.29 197.59 197.29"/><polygon points="337 197.29 337 314.71 367.75 314.71 367.75 252.52 384.97 283.07 405.37 283.07 423.08 251.42 423.08 314.71 453.64 314.71 453.64 197.29 424.18 197.29 395.32 249.63 366.76 197.29 337 197.29"/></g></g></g></svg>