<?xml version="1.0" encoding="UTF-8"?>
<svg id="uuid-3979faa6-f308-41bf-93e2-ac9bea892520" data-name="Слой 2" xmlns="http://www.w3.org/2000/svg" viewBox="0 0 1169.67 585.05">
  <g id="uuid-d43189c2-f10f-4051-8eea-eb278edd9b47" data-name="Слой 1">
    <g>
      <path d="M734.08,509.51c7.12,0,12.73,1.83,16.83,5.5,4.1,3.67,6.14,8.67,6.14,15,0,6.91-2.4,12.16-7.18,15.75v.75c2.96,1.8,5.25,4.19,6.85,7.18,1.61,2.99,2.41,6.38,2.41,10.2,0,4.17-.95,7.86-2.84,11.06-1.89,3.2-4.57,5.68-8.04,7.45-3.47,1.76-7.47,2.64-12,2.64h-33.27v-75.54h31.1ZM739.8,537.84c1.54-1.47,2.32-3.43,2.32-5.88s-.77-4.41-2.32-5.88c-1.54-1.47-3.64-2.21-6.29-2.21h-15.88v16.19h15.88c2.65,0,4.74-.74,6.29-2.21ZM741.64,568.43c1.57-1.51,2.36-3.52,2.36-6.04s-.8-4.53-2.41-6.04c-1.61-1.51-3.73-2.27-6.38-2.27h-17.58v16.62h17.58c2.71,0,4.85-.75,6.43-2.27Z"/>
      <polygon points="411.24 509.45 411.24 584.98 425.6 584.98 425.6 562.9 435.98 550.75 454.53 584.98 472.2 584.98 445.03 540.15 470.21 509.45 452.32 509.45 426.92 542.13 425.37 541.69 425.37 509.45 411.24 509.45"/>
      <polygon points="519.24 509.45 519.24 584.98 532.05 584.98 561.64 536.83 561.64 584.98 576 584.98 576 509.45 563.19 509.45 534.48 557.15 533.74 557.26 533.74 509.45 519.24 509.45"/>
      <rect x="632.6" y="509.45" width="14.8" height="75.53"/>
      <rect x="622.44" y="489.13" width="11.37" height="13.14"/>
      <rect x="645.9" y="489.13" width="11.37" height="13.14"/>
      <rect y="423.09" width="1169.67" height="10.6"/>
      <polygon points="0 0 0 347.48 411.98 347.48 411.98 271.8 345.13 271.8 345.13 0 253.84 0 253.84 272.69 90.11 272.69 90.11 0 0 0"/>
      <polygon points="411.98 0 411.98 203.78 666.7 203.78 666.7 271.51 478.53 271.51 478.53 347.48 757.69 347.48 757.69 0 666.7 0 666.7 128.39 502.97 128.39 502.97 0 411.98 0"/>
      <polygon points="824.54 0 824.54 347.48 915.53 347.48 915.53 163.44 966.48 253.84 1026.85 253.84 1079.26 160.2 1079.26 347.48 1169.67 347.48 1169.67 0 1082.5 0 997.1 154.9 912.59 0 824.54 0"/>
    </g>
  </g>
</svg>